<svg width="33" height="32" viewBox="0 0 33 32" fill="none" xmlns="http://www.w3.org/2000/svg">
<path d="M8.5 29.3333V5.33329C8.5 4.62605 8.78095 3.94777 9.28105 3.44767C9.78115 2.94758 10.4594 2.66663 11.1667 2.66663H21.8333C22.5406 2.66663 23.2189 2.94758 23.719 3.44767C24.219 3.94777 24.5 4.62605 24.5 5.33329V29.3333H8.5Z" stroke="#F15027" stroke-width="2.66667" stroke-linecap="round" stroke-linejoin="round"/>
<path d="M8.49999 16H5.83332C5.12608 16 4.4478 16.281 3.9477 16.781C3.44761 17.2811 3.16666 17.9594 3.16666 18.6667V26.6667C3.16666 27.3739 3.44761 28.0522 3.9477 28.5523C4.4478 29.0524 5.12608 29.3333 5.83332 29.3333H8.49999" stroke="#F15027" stroke-width="2.66667" stroke-linecap="round" stroke-linejoin="round"/>
<path d="M24.5 12H27.1667C27.8739 12 28.5522 12.281 29.0523 12.781C29.5524 13.2811 29.8333 13.9594 29.8333 14.6667V26.6667C29.8333 27.3739 29.5524 28.0522 29.0523 28.5523C28.5522 29.0524 27.8739 29.3333 27.1667 29.3333H24.5" stroke="#F15027" stroke-width="2.66667" stroke-linecap="round" stroke-linejoin="round"/>
<path d="M13.8333 8H19.1667" stroke="#F15027" stroke-width="2.66667" stroke-linecap="round" stroke-linejoin="round"/>
<path d="M13.8333 13.3334H19.1667" stroke="#F15027" stroke-width="2.66667" stroke-linecap="round" stroke-linejoin="round"/>
<path d="M13.8333 18.6667H19.1667" stroke="#F15027" stroke-width="2.66667" stroke-linecap="round" stroke-linejoin="round"/>
<path d="M13.8333 24H19.1667" stroke="#F15027" stroke-width="2.66667" stroke-linecap="round" stroke-linejoin="round"/>
</svg>
