<svg width="33" height="32" viewBox="0 0 33 32" fill="none" xmlns="http://www.w3.org/2000/svg">
<path d="M21.136 17.1868L23.156 28.5548C23.1787 28.6886 23.1599 28.8262 23.1022 28.9491C23.0445 29.072 22.9507 29.1744 22.8333 29.2425C22.7159 29.3106 22.5804 29.3413 22.4451 29.3304C22.3098 29.3195 22.181 29.2675 22.076 29.1814L17.3027 25.5988C17.0723 25.4266 16.7923 25.3336 16.5047 25.3336C16.2171 25.3336 15.9371 25.4266 15.7067 25.5988L10.9254 29.1801C10.8205 29.266 10.6919 29.3179 10.5567 29.3288C10.4215 29.3398 10.2863 29.3092 10.1689 29.2413C10.0516 29.1733 9.95774 29.0712 9.89993 28.9485C9.84212 28.8259 9.82308 28.6885 9.84537 28.5548L11.864 17.1868" stroke="#F15027" stroke-width="2.66667" stroke-linecap="round" stroke-linejoin="round"/>
<path d="M16.5 18.6666C20.9183 18.6666 24.5 15.0849 24.5 10.6666C24.5 6.24835 20.9183 2.66663 16.5 2.66663C12.0817 2.66663 8.5 6.24835 8.5 10.6666C8.5 15.0849 12.0817 18.6666 16.5 18.6666Z" stroke="#F15027" stroke-width="2.66667" stroke-linecap="round" stroke-linejoin="round"/>
</svg>
