<svg width="33" height="32" viewBox="0 0 33 32" fill="none" xmlns="http://www.w3.org/2000/svg">
<path d="M21.8334 28V25.3333C21.8334 23.9188 21.2715 22.5623 20.2713 21.5621C19.2711 20.5619 17.9145 20 16.5 20H8.50002C7.08553 20 5.72898 20.5619 4.72878 21.5621C3.72859 22.5623 3.16669 23.9188 3.16669 25.3333V28" stroke="#F15027" stroke-width="2.66667" stroke-linecap="round" stroke-linejoin="round"/>
<path d="M12.5 14.6667C15.4455 14.6667 17.8334 12.2789 17.8334 9.33333C17.8334 6.38781 15.4455 4 12.5 4C9.5545 4 7.16669 6.38781 7.16669 9.33333C7.16669 12.2789 9.5545 14.6667 12.5 14.6667Z" stroke="#F15027" stroke-width="2.66667" stroke-linecap="round" stroke-linejoin="round"/>
<path d="M29.8333 28V25.3333C29.8324 24.1516 29.4391 23.0037 28.7151 22.0698C27.9911 21.1358 26.9775 20.4688 25.8333 20.1733" stroke="#F15027" stroke-width="2.66667" stroke-linecap="round" stroke-linejoin="round"/>
<path d="M21.8333 4.17334C22.9805 4.46707 23.9974 5.13427 24.7235 6.06975C25.4496 7.00523 25.8438 8.15578 25.8438 9.34001C25.8438 10.5242 25.4496 11.6748 24.7235 12.6103C23.9974 13.5457 22.9805 14.2129 21.8333 14.5067" stroke="#F15027" stroke-width="2.66667" stroke-linecap="round" stroke-linejoin="round"/>
</svg>
