<svg width="25" height="24" viewBox="0 0 25 24" fill="none" xmlns="http://www.w3.org/2000/svg">
<path d="M20.3334 13C20.3334 18 16.8334 20.5 12.6734 21.95C12.4555 22.0238 12.2189 22.0203 12.0034 21.94C7.83337 20.5 4.33337 18 4.33337 13V6.00002C4.33337 5.73481 4.43873 5.48045 4.62627 5.29292C4.8138 5.10538 5.06816 5.00002 5.33337 5.00002C7.33337 5.00002 9.83337 3.80002 11.5734 2.28002C11.7852 2.09902 12.0547 1.99957 12.3334 1.99957C12.612 1.99957 12.8815 2.09902 13.0934 2.28002C14.8434 3.81002 17.3334 5.00002 19.3334 5.00002C19.5986 5.00002 19.8529 5.10538 20.0405 5.29292C20.228 5.48045 20.3334 5.73481 20.3334 6.00002V13Z" stroke="#F15027" stroke-width="2" stroke-linecap="round" stroke-linejoin="round"/>
</svg>
