<svg width="20" height="20" viewBox="0 0 20 20" fill="none" xmlns="http://www.w3.org/2000/svg">
<path d="M14.1667 1.6665H5.83332C3.53214 1.6665 1.66666 3.53198 1.66666 5.83317V14.1665C1.66666 16.4677 3.53214 18.3332 5.83332 18.3332H14.1667C16.4678 18.3332 18.3333 16.4677 18.3333 14.1665V5.83317C18.3333 3.53198 16.4678 1.6665 14.1667 1.6665Z" stroke="white" stroke-width="1.66667" stroke-linecap="round" stroke-linejoin="round"/>
<path d="M13.3333 9.47476C13.4362 10.1683 13.3177 10.8766 12.9948 11.4989C12.6719 12.1213 12.161 12.6259 11.5347 12.9412C10.9084 13.2564 10.1987 13.3661 9.5065 13.2547C8.81428 13.1433 8.17481 12.8165 7.67904 12.3207C7.18327 11.825 6.85645 11.1855 6.74507 10.4933C6.63368 9.80106 6.7434 9.09134 7.05862 8.46507C7.37383 7.83881 7.8785 7.32788 8.50083 7.00496C9.12316 6.68205 9.83147 6.56359 10.525 6.66643C11.2324 6.77133 11.8874 7.10098 12.3931 7.60669C12.8988 8.11239 13.2284 8.76733 13.3333 9.47476Z" stroke="white" stroke-width="1.66667" stroke-linecap="round" stroke-linejoin="round"/>
<path d="M14.5833 5.4165H14.5917" stroke="white" stroke-width="1.66667" stroke-linecap="round" stroke-linejoin="round"/>
</svg>
