<svg width="25" height="24" viewBox="0 0 25 24" fill="none" xmlns="http://www.w3.org/2000/svg">
<path d="M12.554 2H12.114C11.5836 2 11.0748 2.21071 10.6998 2.58579C10.3247 2.96086 10.114 3.46957 10.114 4V4.18C10.1136 4.53073 10.021 4.87519 9.84552 5.17884C9.67001 5.48248 9.41772 5.73464 9.11399 5.91L8.68399 6.16C8.37995 6.33554 8.03506 6.42795 7.68399 6.42795C7.33291 6.42795 6.98802 6.33554 6.68399 6.16L6.53399 6.08C6.07505 5.81526 5.52982 5.74344 5.01799 5.88031C4.50615 6.01717 4.06954 6.35154 3.80399 6.81L3.58399 7.19C3.31925 7.64893 3.24743 8.19416 3.38429 8.706C3.52116 9.21783 3.85552 9.65445 4.31399 9.92L4.46399 10.02C4.76626 10.1945 5.01761 10.4451 5.19304 10.7468C5.36847 11.0486 5.46188 11.391 5.46399 11.74V12.25C5.46539 12.6024 5.37364 12.949 5.19803 13.2545C5.02242 13.5601 4.7692 13.8138 4.46399 13.99L4.31399 14.08C3.85552 14.3456 3.52116 14.7822 3.38429 15.294C3.24743 15.8058 3.31925 16.3511 3.58399 16.81L3.80399 17.19C4.06954 17.6485 4.50615 17.9828 5.01799 18.1197C5.52982 18.2566 6.07505 18.1847 6.53399 17.92L6.68399 17.84C6.98802 17.6645 7.33291 17.5721 7.68399 17.5721C8.03506 17.5721 8.37995 17.6645 8.68399 17.84L9.11399 18.09C9.41772 18.2654 9.67001 18.5175 9.84552 18.8212C10.021 19.1248 10.1136 19.4693 10.114 19.82V20C10.114 20.5304 10.3247 21.0391 10.6998 21.4142C11.0748 21.7893 11.5836 22 12.114 22H12.554C13.0844 22 13.5931 21.7893 13.9682 21.4142C14.3433 21.0391 14.554 20.5304 14.554 20V19.82C14.5543 19.4693 14.6469 19.1248 14.8224 18.8212C14.998 18.5175 15.2502 18.2654 15.554 18.09L15.984 17.84C16.288 17.6645 16.6329 17.5721 16.984 17.5721C17.3351 17.5721 17.6799 17.6645 17.984 17.84L18.134 17.92C18.5929 18.1847 19.1381 18.2566 19.65 18.1197C20.1618 17.9828 20.5984 17.6485 20.864 17.19L21.084 16.8C21.3487 16.3411 21.4205 15.7958 21.2837 15.284C21.1468 14.7722 20.8125 14.3356 20.354 14.07L20.204 13.99C19.8988 13.8138 19.6455 13.5601 19.4699 13.2545C19.2943 12.949 19.2026 12.6024 19.204 12.25V11.75C19.2026 11.3976 19.2943 11.051 19.4699 10.7455C19.6455 10.4399 19.8988 10.1862 20.204 10.01L20.354 9.92C20.8125 9.65445 21.1468 9.21783 21.2837 8.706C21.4205 8.19416 21.3487 7.64893 21.084 7.19L20.864 6.81C20.5984 6.35154 20.1618 6.01717 19.65 5.88031C19.1381 5.74344 18.5929 5.81526 18.134 6.08L17.984 6.16C17.6799 6.33554 17.3351 6.42795 16.984 6.42795C16.6329 6.42795 16.288 6.33554 15.984 6.16L15.554 5.91C15.2502 5.73464 14.998 5.48248 14.8224 5.17884C14.6469 4.87519 14.5543 4.53073 14.554 4.18V4C14.554 3.46957 14.3433 2.96086 13.9682 2.58579C13.5931 2.21071 13.0844 2 12.554 2Z" stroke="#F15027" stroke-width="2" stroke-linecap="round" stroke-linejoin="round"/>
<path d="M12.334 15C13.9908 15 15.334 13.6569 15.334 12C15.334 10.3431 13.9908 9 12.334 9C10.6771 9 9.33398 10.3431 9.33398 12C9.33398 13.6569 10.6771 15 12.334 15Z" stroke="#F15027" stroke-width="2" stroke-linecap="round" stroke-linejoin="round"/>
</svg>
