<svg width="25" height="24" viewBox="0 0 25 24" fill="none" xmlns="http://www.w3.org/2000/svg">
<path d="M13.4965 2.17999C13.2359 2.06114 12.9529 1.99963 12.6665 1.99963C12.3801 1.99963 12.097 2.06114 11.8365 2.17999L3.26647 6.07999C3.08902 6.15823 2.93815 6.28639 2.83223 6.44885C2.72631 6.61131 2.66992 6.80106 2.66992 6.99499C2.66992 7.18893 2.72631 7.37868 2.83223 7.54113C2.93815 7.70359 3.08902 7.83175 3.26647 7.90999L11.8465 11.82C12.107 11.9388 12.3901 12.0003 12.6765 12.0003C12.9629 12.0003 13.2459 11.9388 13.5065 11.82L22.0865 7.91999C22.2639 7.84175 22.4148 7.71359 22.5207 7.55113C22.6266 7.38868 22.683 7.19893 22.683 7.00499C22.683 6.81106 22.6266 6.6213 22.5207 6.45885C22.4148 6.29639 22.2639 6.16823 22.0865 6.08999L13.4965 2.17999Z" stroke="#F15027" stroke-width="2" stroke-linecap="round" stroke-linejoin="round"/>
<path d="M22.666 17.65L13.496 21.81C13.2355 21.9289 12.9524 21.9904 12.666 21.9904C12.3796 21.9904 12.0966 21.9289 11.836 21.81L2.66602 17.65" stroke="#F15027" stroke-width="2" stroke-linecap="round" stroke-linejoin="round"/>
<path d="M22.666 12.65L13.496 16.81C13.2355 16.9289 12.9524 16.9904 12.666 16.9904C12.3796 16.9904 12.0966 16.9289 11.836 16.81L2.66602 12.65" stroke="#F15027" stroke-width="2" stroke-linecap="round" stroke-linejoin="round"/>
</svg>
