<svg width="25" height="24" viewBox="0 0 25 24" fill="none" xmlns="http://www.w3.org/2000/svg">
<path d="M4.33349 14C4.14425 14.0006 3.95872 13.9476 3.79844 13.847C3.63816 13.7464 3.50972 13.6023 3.42804 13.4316C3.34635 13.2609 3.31478 13.0706 3.33699 12.8826C3.35919 12.6947 3.43427 12.5169 3.55349 12.37L13.4535 2.16998C13.5278 2.08426 13.6289 2.02634 13.7405 2.00571C13.852 1.98509 13.9672 2.00299 14.0672 2.05648C14.1672 2.10998 14.2461 2.19588 14.2908 2.30009C14.3356 2.4043 14.3436 2.52063 14.3135 2.62998L12.3935 8.64998C12.3369 8.8015 12.3179 8.9645 12.3381 9.12499C12.3583 9.28547 12.4171 9.43866 12.5096 9.57141C12.602 9.70415 12.7253 9.81249 12.8688 9.88714C13.0123 9.96179 13.1717 10.0005 13.3335 9.99998H20.3335C20.5227 9.99933 20.7083 10.0524 20.8685 10.153C21.0288 10.2536 21.1573 10.3976 21.2389 10.5683C21.3206 10.739 21.3522 10.9294 21.33 11.1173C21.3078 11.3053 21.2327 11.483 21.1135 11.63L11.2135 21.83C11.1392 21.9157 11.038 21.9736 10.9265 21.9942C10.815 22.0149 10.6998 21.997 10.5998 21.9435C10.4998 21.89 10.4209 21.8041 10.3762 21.6999C10.3314 21.5957 10.3234 21.4793 10.3535 21.37L12.2735 15.35C12.3301 15.1985 12.3491 15.0355 12.3289 14.875C12.3087 14.7145 12.2498 14.5613 12.1574 14.4286C12.065 14.2958 11.9417 14.1875 11.7982 14.1128C11.6547 14.0382 11.4952 13.9995 11.3335 14H4.33349Z" stroke="#F15027" stroke-width="2" stroke-linecap="round" stroke-linejoin="round"/>
</svg>
