<svg width="25" height="24" viewBox="0 0 25 24" fill="none" xmlns="http://www.w3.org/2000/svg">
<path d="M6.66602 9C8.32287 9 9.66602 7.65685 9.66602 6C9.66602 4.34315 8.32287 3 6.66602 3C5.00916 3 3.66602 4.34315 3.66602 6C3.66602 7.65685 5.00916 9 6.66602 9Z" stroke="#F15027" stroke-width="2" stroke-linecap="round" stroke-linejoin="round"/>
<path d="M8.78516 8.12L12.6652 12" stroke="#F15027" stroke-width="2" stroke-linecap="round" stroke-linejoin="round"/>
<path d="M20.6652 4L8.78516 15.88" stroke="#F15027" stroke-width="2" stroke-linecap="round" stroke-linejoin="round"/>
<path d="M6.66602 21C8.32287 21 9.66602 19.6569 9.66602 18C9.66602 16.3431 8.32287 15 6.66602 15C5.00916 15 3.66602 16.3431 3.66602 18C3.66602 19.6569 5.00916 21 6.66602 21Z" stroke="#F15027" stroke-width="2" stroke-linecap="round" stroke-linejoin="round"/>
<path d="M15.4668 14.8L20.6668 20" stroke="#F15027" stroke-width="2" stroke-linecap="round" stroke-linejoin="round"/>
</svg>
