<svg width="25" height="24" viewBox="0 0 25 24" fill="none" xmlns="http://www.w3.org/2000/svg">
<path d="M9.66602 3H5.66602C4.56145 3 3.66602 3.89543 3.66602 5V9C3.66602 10.1046 4.56145 11 5.66602 11H9.66602C10.7706 11 11.666 10.1046 11.666 9V5C11.666 3.89543 10.7706 3 9.66602 3Z" stroke="#F15027" stroke-width="2" stroke-linecap="round" stroke-linejoin="round"/>
<path d="M7.66602 11V15C7.66602 15.5304 7.87673 16.0391 8.2518 16.4142C8.62687 16.7893 9.13558 17 9.66602 17H13.666" stroke="#F15027" stroke-width="2" stroke-linecap="round" stroke-linejoin="round"/>
<path d="M19.666 13H15.666C14.5614 13 13.666 13.8954 13.666 15V19C13.666 20.1046 14.5614 21 15.666 21H19.666C20.7706 21 21.666 20.1046 21.666 19V15C21.666 13.8954 20.7706 13 19.666 13Z" stroke="#F15027" stroke-width="2" stroke-linecap="round" stroke-linejoin="round"/>
</svg>
