<svg width="32" height="32" viewBox="0 0 32 32" fill="none" xmlns="http://www.w3.org/2000/svg">
<path d="M19.5998 8.39999C19.3555 8.64923 19.2187 8.98432 19.2187 9.33333C19.2187 9.68233 19.3555 10.0174 19.5998 10.2667L21.7331 12.4C21.9824 12.6443 22.3175 12.7811 22.6665 12.7811C23.0155 12.7811 23.3506 12.6443 23.5998 12.4L28.6265 7.37333C29.2969 8.85491 29.4999 10.5056 29.2084 12.1055C28.9169 13.7054 28.1448 15.1785 26.9948 16.3284C25.8449 17.4783 24.3719 18.2504 22.772 18.5419C21.1721 18.8334 19.5214 18.6304 18.0398 17.96L8.82647 27.1733C8.29604 27.7038 7.57662 28.0018 6.82647 28.0018C6.07633 28.0018 5.35691 27.7038 4.82647 27.1733C4.29604 26.6429 3.99805 25.9235 3.99805 25.1733C3.99805 24.4232 4.29604 23.7038 4.82647 23.1733L14.0398 13.96C13.3694 12.4784 13.1664 10.8277 13.4579 9.2278C13.7494 7.62792 14.5215 6.15487 15.6714 5.00496C16.8213 3.85504 18.2944 3.08289 19.8943 2.79138C21.4942 2.49988 23.1449 2.70288 24.6265 3.37333L19.6131 8.38666L19.5998 8.39999Z" stroke="#F15027" stroke-width="2.66667" stroke-linecap="round" stroke-linejoin="round"/>
</svg>
