<svg width="25" height="24" viewBox="0 0 25 24" fill="none" xmlns="http://www.w3.org/2000/svg">
<path d="M3.66663 14H6.66663C7.19706 14 7.70577 14.2107 8.08084 14.5858C8.45591 14.9609 8.66663 15.4696 8.66663 16V19C8.66663 19.5304 8.45591 20.0391 8.08084 20.4142C7.70577 20.7893 7.19706 21 6.66663 21H5.66663C5.13619 21 4.62749 20.7893 4.25241 20.4142C3.87734 20.0391 3.66663 19.5304 3.66663 19V12C3.66663 9.61305 4.61484 7.32387 6.30266 5.63604C7.99049 3.94821 10.2797 3 12.6666 3C15.0536 3 17.3428 3.94821 19.0306 5.63604C20.7184 7.32387 21.6666 9.61305 21.6666 12V19C21.6666 19.5304 21.4559 20.0391 21.0808 20.4142C20.7058 20.7893 20.1971 21 19.6666 21H18.6666C18.1362 21 17.6275 20.7893 17.2524 20.4142C16.8773 20.0391 16.6666 19.5304 16.6666 19V16C16.6666 15.4696 16.8773 14.9609 17.2524 14.5858C17.6275 14.2107 18.1362 14 18.6666 14H21.6666" stroke="#F15027" stroke-width="2" stroke-linecap="round" stroke-linejoin="round"/>
</svg>
