<svg width="150" height="50" viewBox="0 0 150 50" fill="none" xmlns="http://www.w3.org/2000/svg">
<path d="M41.6746 27.8259V23.2916C41.6746 22.7024 41.1453 22.2247 40.4924 22.2247H20.4356C19.3973 22.2247 18.8633 21.1036 19.5777 20.4237L30.84 9.70632C31.3068 9.2621 32.0912 9.26272 32.5571 9.70767L45.3418 21.9163C45.5492 22.1144 45.6648 22.3766 45.6648 22.6491V27.8259C45.6648 28.4152 46.1941 28.8928 46.847 28.8928H55.2706C55.9236 28.8928 56.4529 28.4152 56.4529 27.8259L56.4529 23.0742C56.4529 22.5 56.3307 22.1129 56.1128 21.9132L32.539 0.32222C32.0769 -0.101022 31.3296 -0.110203 30.8661 0.311796L7.5 21.5625C7.1875 21.875 6.79799 22.1371 6.79799 22.8125L6.79799 27.8271C6.79799 28.4164 7.32731 28.8928 7.98025 28.8928H40.4924C41.1453 28.8928 41.6746 28.4152 41.6746 27.8259Z" fill="#F15027"/>
<path d="M0 31.9602C0 31.3709 0.529315 30.8933 1.18226 30.8933H24.9752C25.6282 30.8933 26.1575 31.3709 26.1575 31.9602V38.3616C26.1575 38.9508 25.6282 39.4285 24.9752 39.4285H1.18226C0.529315 39.4285 0 38.9508 0 38.3616V31.9602Z" fill="#F15027"/>
<path d="M30.1476 31.9602C30.1476 31.3709 30.6769 30.8933 31.3299 30.8933H55.1228C55.7758 30.8933 56.3051 31.3709 56.3051 31.9602V38.3616C56.3051 38.9508 55.7758 39.4285 55.1228 39.4285H31.3299C30.6769 39.4285 30.1476 38.9508 30.1476 38.3616V31.9602Z" fill="#F15027"/>
<path d="M0 42.4958C0 41.9065 0.529315 41.4289 1.18226 41.4289H9.60586C10.2588 41.4289 10.7881 41.9065 10.7881 42.4958V48.8972C10.7881 49.4864 10.2588 49.9641 9.60586 49.9641H1.18226C0.529315 49.9641 0 49.4864 0 48.8972V42.4958Z" fill="#F15027"/>
<path d="M14.7782 42.4958C14.7782 41.9065 15.3076 41.4289 15.9605 41.4289H55.2706C55.9236 41.4289 56.4529 41.9065 56.4529 42.4958V48.8972C56.4529 49.4864 55.9236 49.9641 55.2706 49.9641H15.9605C15.3076 49.9641 14.7782 49.4864 14.7782 48.8972V42.4958Z" fill="#F15027"/>
<path d="M65.4742 16.2276V33.2938H61.2529V16.2276H65.4742Z" fill="#F34E20"/>
<path d="M77.3667 28.7928C77.3667 28.5037 77.319 28.2458 77.2238 28.0192C77.1285 27.7848 76.9554 27.5699 76.7043 27.3746C76.4531 27.1792 76.0981 26.9838 75.6392 26.7885C75.1803 26.5853 74.5784 26.3782 73.8338 26.1673C72.9852 25.9172 72.1755 25.6359 71.4049 25.3233C70.6429 25.0029 69.9631 24.6318 69.3656 24.2098C68.7682 23.7878 68.2962 23.2955 67.9499 22.7329C67.6122 22.1703 67.4433 21.5139 67.4433 20.7638C67.4433 20.037 67.6208 19.3806 67.9759 18.7946C68.3309 18.2085 68.8288 17.7084 69.4696 17.2943C70.1103 16.8723 70.8637 16.5519 71.7296 16.3331C72.5955 16.1065 73.548 15.9932 74.5871 15.9932C75.9726 15.9932 77.1892 16.2159 78.2369 16.6613C79.2933 17.0989 80.116 17.7162 80.7048 18.5133C81.2936 19.3025 81.588 20.2207 81.588 21.2678H77.3797C77.3797 20.8067 77.2714 20.4004 77.0549 20.0488C76.8471 19.6893 76.5267 19.408 76.0938 19.2048C75.6695 19.0017 75.137 18.9001 74.4962 18.9001C73.8727 18.9001 73.3488 18.986 72.9245 19.1579C72.5089 19.322 72.1928 19.5486 71.9764 19.8378C71.7686 20.1269 71.6646 20.4434 71.6646 20.7872C71.6646 21.0607 71.7426 21.3107 71.8984 21.5374C72.063 21.7562 72.2968 21.9632 72.5998 22.1586C72.9116 22.3461 73.2926 22.5258 73.7428 22.6978C74.1931 22.8697 74.7083 23.0338 75.2885 23.1901C76.3016 23.4792 77.1978 23.7996 77.9771 24.1512C78.7651 24.5028 79.4276 24.9014 79.9644 25.3468C80.5013 25.7922 80.9039 26.2962 81.1724 26.8588C81.4495 27.4214 81.588 28.0583 81.588 28.7694C81.588 29.5274 81.4235 30.1994 81.0944 30.7854C80.774 31.3715 80.3064 31.8716 79.6917 32.2858C79.0855 32.6921 78.3581 33.0008 77.5096 33.2117C76.661 33.4227 75.7128 33.5282 74.665 33.5282C73.7125 33.5282 72.773 33.4188 71.8465 33.2C70.92 32.9734 70.08 32.6296 69.3267 32.1686C68.582 31.7075 67.9845 31.1215 67.5342 30.4104C67.0926 29.6915 66.8718 28.8397 66.8718 27.8551H71.1061C71.1061 28.3709 71.1884 28.8085 71.3529 29.1679C71.5174 29.5195 71.7512 29.8048 72.0543 30.0236C72.366 30.2424 72.7427 30.3986 73.1843 30.4924C73.6259 30.5862 74.1195 30.6331 74.665 30.6331C75.2971 30.6331 75.808 30.5549 76.1977 30.3986C76.596 30.2345 76.8904 30.0118 77.0809 29.7305C77.2714 29.4492 77.3667 29.1366 77.3667 28.7928Z" fill="#F34E20"/>
<path d="M84.778 16.2276H88.285L92.831 28.4295L97.3641 16.2276H100.871L94.2468 33.2938H91.4023L84.778 16.2276ZM82.7518 16.2276H86.3237L86.9861 28.8749V33.2938H82.7518V16.2276ZM99.3254 16.2276H102.91V33.2938H98.6629V28.8749L99.3254 16.2276Z" fill="#F34E20"/>
<path d="M109.231 16.2276V33.2938H105.009V16.2276H109.231Z" fill="#F34E20"/>
<path d="M111.316 16.2276H118.577C120.023 16.2276 121.274 16.423 122.331 16.8137C123.396 17.2044 124.214 17.7826 124.786 18.5484C125.357 19.3142 125.643 20.2597 125.643 21.385C125.643 22.3227 125.474 23.1197 125.136 23.7761C124.799 24.4325 124.323 24.9756 123.708 25.4054C123.102 25.8352 122.392 26.1829 121.578 26.4486L120.201 27.1284H114.018L113.992 24.1629H118.59C119.222 24.1629 119.746 24.0613 120.162 23.8582C120.577 23.655 120.889 23.3698 121.097 23.0025C121.313 22.6274 121.422 22.1898 121.422 21.6897C121.422 21.174 121.313 20.7286 121.097 20.3535C120.881 19.9784 120.56 19.6932 120.136 19.4979C119.72 19.2947 119.201 19.1931 118.577 19.1931H115.551V33.2938H111.316V16.2276ZM121.785 33.2938L117.538 25.7101L122.006 25.6984L126.318 33.118V33.2938H121.785Z" fill="#F34E20"/>
<path d="M63.5923 37.5051V49.8307H60.5342V37.5051H63.5923ZM71.7535 37.5051L66.4065 43.6679L63.2921 46.7154L62.7387 44.1504L64.7931 41.4923L68.0013 37.5051H71.7535ZM68.2076 49.8307L64.4366 44.2012L66.763 42.5674L71.8286 49.8307H68.2076Z" fill="#F34E20"/>
<path d="M79.3013 37.5051H82.3594V45.598C82.3594 46.5574 82.1342 47.3644 81.684 48.0191C81.24 48.6738 80.6208 49.1676 79.8266 49.5005C79.0324 49.8335 78.113 50 77.0687 50C76.018 50 75.0925 49.8335 74.292 49.5005C73.4977 49.1676 72.8724 48.6738 72.4158 48.0191C71.9655 47.3644 71.7404 46.5574 71.7404 45.598V37.5051H74.8079V45.598C74.8079 46.1285 74.8955 46.5631 75.0706 46.9017C75.2519 47.2346 75.5115 47.4801 75.8492 47.6382C76.1869 47.7905 76.5934 47.8667 77.0687 47.8667C77.544 47.8667 77.9473 47.7905 78.2788 47.6382C78.6165 47.4801 78.8698 47.2346 79.0386 46.9017C79.2137 46.5631 79.3013 46.1285 79.3013 45.598V37.5051Z" fill="#F34E20"/>
<path d="M83.5845 37.5051H88.8283C89.8727 37.5051 90.7764 37.6462 91.5394 37.9284C92.3086 38.2106 92.8996 38.6282 93.3123 39.1813C93.7251 39.7343 93.9314 40.4172 93.9314 41.2299C93.9314 41.9071 93.8095 42.4827 93.5656 42.9568C93.3217 43.4309 92.9777 43.8231 92.5337 44.1335C92.0959 44.4439 91.5831 44.695 90.9953 44.8869L90.0009 45.3779H85.5357L85.5169 43.2362H88.8377C89.2942 43.2362 89.6726 43.1628 89.9728 43.0161C90.273 42.8693 90.4981 42.6633 90.6482 42.3981C90.8045 42.1272 90.8827 41.8112 90.8827 41.45C90.8827 41.0775 90.8045 40.7558 90.6482 40.4849C90.4918 40.214 90.2605 40.008 89.954 39.867C89.6538 39.7202 89.2786 39.6469 88.8283 39.6469H86.6426V49.8307H83.5845V37.5051ZM91.1454 49.8307L88.0779 44.3536L91.3048 44.3451L94.4192 49.7037V49.8307H91.1454Z" fill="#F34E20"/>
<path d="M102.52 37.5051H105.579V45.598C105.579 46.5574 105.353 47.3644 104.903 48.0191C104.459 48.6738 103.84 49.1676 103.046 49.5005C102.252 49.8335 101.332 50 100.288 50C99.2372 50 98.3116 49.8335 97.5111 49.5005C96.7169 49.1676 96.0915 48.6738 95.635 48.0191C95.1847 47.3644 94.9596 46.5574 94.9596 45.598V37.5051H98.0271V45.598C98.0271 46.1285 98.1146 46.5631 98.2897 46.9017C98.4711 47.2346 98.7306 47.4801 99.0683 47.6382C99.406 47.7905 99.8125 47.8667 100.288 47.8667C100.763 47.8667 101.166 47.7905 101.498 47.6382C101.836 47.4801 102.089 47.2346 102.258 46.9017C102.433 46.5631 102.52 46.1285 102.52 45.598V37.5051Z" fill="#F34E20"/>
<path d="M115.715 47.6974V49.8307H108.821V47.6974H115.715ZM109.862 37.5051V49.8307H106.804V37.5051H109.862Z" fill="#F34E20"/>
<path d="M123.469 37.5051H126.528V45.598C126.528 46.5574 126.302 47.3644 125.852 48.0191C125.408 48.6738 124.789 49.1676 123.995 49.5005C123.201 49.8335 122.281 50 121.237 50C120.186 50 119.261 49.8335 118.46 49.5005C117.666 49.1676 117.041 48.6738 116.584 48.0191C116.134 47.3644 115.909 46.5574 115.909 45.598V37.5051H118.976V45.598C118.976 46.1285 119.064 46.5631 119.239 46.9017C119.42 47.2346 119.68 47.4801 120.017 47.6382C120.355 47.7905 120.762 47.8667 121.237 47.8667C121.712 47.8667 122.115 47.7905 122.447 47.6382C122.785 47.4801 123.038 47.2346 123.207 46.9017C123.382 46.5631 123.469 46.1285 123.469 45.598V37.5051Z" fill="#F34E20"/>
<path d="M134.835 46.58C134.835 46.3712 134.801 46.1849 134.732 46.0213C134.663 45.852 134.538 45.6968 134.357 45.5557C134.175 45.4146 133.919 45.2735 133.587 45.1324C133.256 44.9857 132.821 44.8361 132.284 44.6837C131.671 44.5032 131.086 44.3 130.529 44.0742C129.979 43.8429 129.488 43.5748 129.057 43.27C128.625 42.9653 128.284 42.6097 128.034 42.2034C127.79 41.7971 127.668 41.323 127.668 40.7812C127.668 40.2564 127.796 39.7823 128.053 39.359C128.309 38.9358 128.669 38.5746 129.132 38.2755C129.594 37.9707 130.139 37.7393 130.764 37.5813C131.389 37.4176 132.077 37.3358 132.828 37.3358C133.828 37.3358 134.707 37.4967 135.464 37.8183C136.227 38.1344 136.821 38.5802 137.246 39.1559C137.671 39.7259 137.884 40.389 137.884 41.1452H134.844C134.844 40.8123 134.766 40.5188 134.61 40.2648C134.46 40.0052 134.229 39.8021 133.916 39.6553C133.609 39.5086 133.225 39.4352 132.762 39.4352C132.312 39.4352 131.933 39.4973 131.627 39.6215C131.327 39.74 131.098 39.9036 130.942 40.1125C130.792 40.3213 130.717 40.5498 130.717 40.7981C130.717 40.9957 130.773 41.1763 130.886 41.3399C131.005 41.498 131.174 41.6475 131.392 41.7886C131.618 41.924 131.893 42.0538 132.218 42.178C132.543 42.3022 132.915 42.4207 133.334 42.5335C134.066 42.7424 134.713 42.9737 135.276 43.2277C135.845 43.4817 136.324 43.7695 136.711 44.0912C137.099 44.4129 137.39 44.7769 137.584 45.1832C137.784 45.5895 137.884 46.0495 137.884 46.5631C137.884 47.1105 137.765 47.5958 137.527 48.0191C137.296 48.4424 136.958 48.8036 136.514 49.1027C136.077 49.3961 135.551 49.6191 134.938 49.7714C134.325 49.9238 133.641 50 132.884 50C132.196 50 131.517 49.921 130.848 49.763C130.179 49.5993 129.573 49.351 129.028 49.018C128.491 48.685 128.059 48.2618 127.734 47.7482C127.415 47.229 127.256 46.6139 127.256 45.9028H130.314C130.314 46.2752 130.373 46.5913 130.492 46.8509C130.611 47.1048 130.78 47.3108 130.998 47.4688C131.224 47.6269 131.496 47.7397 131.815 47.8075C132.133 47.8752 132.49 47.909 132.884 47.909C133.34 47.909 133.709 47.8526 133.991 47.7397C134.279 47.6212 134.491 47.4604 134.629 47.2572C134.766 47.0541 134.835 46.8283 134.835 46.58Z" fill="#F34E20"/>
<path d="M147.889 42.4658V44.5991H140.816V42.4658H147.889ZM141.782 37.5051V49.8307H138.724V37.5051H141.782ZM150 37.5051V49.8307H146.951V37.5051H150Z" fill="#F34E20"/>
</svg>
